<svg width="25" height="24" viewBox="0 0 25 24" fill="none" xmlns="http://www.w3.org/2000/svg">
<g id="function_FILL1_wght400_GRAD0_opsz24 1">
<path id="Vector" d="M10.47 18V16H12.02L14.645 13L12.02 10H10.37L8.76997 18.6C8.63664 19.35 8.3283 19.9375 7.84497 20.3625C7.36164 20.7875 6.74497 21 5.99497 21C5.24497 21 4.63664 20.8 4.16997 20.4C3.7033 20 3.46997 19.4667 3.46997 18.8C3.46997 18.2667 3.61164 17.8375 3.89497 17.5125C4.1783 17.1875 4.53664 17.025 4.96997 17.025C5.38664 17.025 5.7408 17.1667 6.03247 17.45C6.32414 17.7333 6.46997 18.075 6.46997 18.475C6.46997 18.5583 6.4658 18.6333 6.45747 18.7C6.44914 18.7667 6.43664 18.8417 6.41997 18.925C6.5033 18.9083 6.57414 18.8625 6.63247 18.7875C6.6908 18.7125 6.73664 18.6083 6.76997 18.475L8.31997 10H5.46997V8H8.69497L9.21997 5.15C9.33664 4.51667 9.64914 4 10.1575 3.6C10.6658 3.2 11.27 3 11.97 3C12.7033 3 13.3033 3.21667 13.77 3.65C14.2366 4.08333 14.47 4.625 14.47 5.275C14.47 5.775 14.3283 6.1875 14.045 6.5125C13.7616 6.8375 13.4033 7 12.97 7C12.5533 7 12.1991 6.85833 11.9075 6.575C11.6158 6.29167 11.47 5.94167 11.47 5.525C11.47 5.44167 11.4741 5.36667 11.4825 5.3C11.4908 5.23333 11.5033 5.15833 11.52 5.075C11.42 5.10833 11.345 5.15833 11.295 5.225C11.245 5.29167 11.2033 5.39167 11.17 5.525L10.745 8H15.47V10H14.67L15.97 11.475L17.27 10H16.47V8H21.47V10H19.92L17.295 13L19.92 16H21.47V18H16.47V16H17.27L15.97 14.5L14.67 16H15.47V18H10.47Z" fill="#E7EAF2"/>
</g>
</svg>
