<svg
  width="63"
  height="65"
  viewBox="0 0 63 65"
  fill="none"
  xmlns="http://www.w3.org/2000/svg"
>
  <g filter="url(#filter0_d_32_107)">
    <path
      d="M38 9C38 11.7614 35.7614 14 33 14C30.2386 14 28 11.7614 28 9C28 6.23858 30.2386 4 33 4C35.7614 4 38 6.23858 38 9Z"
      fill="white"
    />
    <path
      d="M59 42C59 44.7614 56.7614 47 54 47C51.2386 47 49 44.7614 49 42C49 39.2386 51.2386 37 54 37C56.7614 37 59 39.2386 59 42Z"
      fill="white"
    />
    <path
      d="M14 49C14 51.7614 11.7614 54 9 54C6.23858 54 4 51.7614 4 49C4 46.2386 6.23858 44 9 44C11.7614 44 14 46.2386 14 49Z"
      fill="white"
    />
    <path
      d="M15 22C15 24.7614 12.7614 27 10 27C7.23858 27 5 24.7614 5 22C5 19.2386 7.23858 17 10 17C12.7614 17 15 19.2386 15 22Z"
      fill="white"
    />
    <path
      d="M37 30C37 32.7614 34.7614 35 32 35C29.2386 35 27 32.7614 27 30C27 27.2386 29.2386 25 32 25C34.7614 25 37 27.2386 37 30Z"
      fill="white"
    />
    <path
      d="M43 56C43 58.7614 40.7614 61 38 61C35.2386 61 33 58.7614 33 56C33 53.2386 35.2386 51 38 51C40.7614 51 43 53.2386 43 56Z"
      fill="white"
    />
    <path
      fill-rule="evenodd"
      clip-rule="evenodd"
      d="M33 9L10 23L9.48005 22.1458L32.4801 8.1458L33 9Z"
      fill="white"
    />
    <path
      fill-rule="evenodd"
      clip-rule="evenodd"
      d="M10 22L32 30L31.6583 30.9398L9.65826 22.9398L10 22Z"
      fill="white"
    />
    <path
      fill-rule="evenodd"
      clip-rule="evenodd"
      d="M54 42L33 9L33.8437 8.46312L54.8437 41.4631L54 42Z"
      fill="white"
    />
    <path
      fill-rule="evenodd"
      clip-rule="evenodd"
      d="M32 30L9 50L8.34382 49.2454L31.3438 29.2454L32 30Z"
      fill="white"
    />
    <path
      fill-rule="evenodd"
      clip-rule="evenodd"
      d="M38 56L9 50L9.20261 49.0207L38.2026 55.0207L38 56Z"
      fill="white"
    />
    <path
      fill-rule="evenodd"
      clip-rule="evenodd"
      d="M32 30L39 56L38.0344 56.26L31.0344 30.26L32 30Z"
      fill="white"
    />
  </g>
  <defs>
    <filter
      id="filter0_d_32_107"
      x="0"
      y="0"
      width="63"
      height="65"
      filterUnits="userSpaceOnUse"
      color-interpolation-filters="sRGB"
    >
      <feFlood flood-opacity="0" result="BackgroundImageFix" />
      <feColorMatrix
        in="SourceAlpha"
        type="matrix"
        values="0 0 0 0 0 0 0 0 0 0 0 0 0 0 0 0 0 0 127 0"
        result="hardAlpha"
      />
      <feOffset />
      <feGaussianBlur stdDeviation="2" />
      <feComposite in2="hardAlpha" operator="out" />
      <feColorMatrix
        type="matrix"
        values="0 0 0 0 1 0 0 0 0 1 0 0 0 0 1 0 0 0 0.25 0"
      />
      <feBlend
        mode="normal"
        in2="BackgroundImageFix"
        result="effect1_dropShadow_32_107"
      />
      <feBlend
        mode="normal"
        in="SourceGraphic"
        in2="effect1_dropShadow_32_107"
        result="shape"
      />
    </filter>
  </defs>
</svg>
