<svg width="25" height="24" viewBox="0 0 25 24" fill="none" xmlns="http://www.w3.org/2000/svg">
<g id="scatter_plot_white_24dp 1" clip-path="url(#clip0_301_18)">
<path id="Vector" d="M7.46997 17C9.12682 17 10.47 15.6569 10.47 14C10.47 12.3431 9.12682 11 7.46997 11C5.81312 11 4.46997 12.3431 4.46997 14C4.46997 15.6569 5.81312 17 7.46997 17Z" fill="#E7EAF2"/>
<path id="Vector_2" d="M11.47 9C13.1268 9 14.47 7.65685 14.47 6C14.47 4.34315 13.1268 3 11.47 3C9.81312 3 8.46997 4.34315 8.46997 6C8.46997 7.65685 9.81312 9 11.47 9Z" fill="#E7EAF2"/>
<path id="Vector_3" d="M17.0699 20.6C18.7268 20.6 20.0699 19.2569 20.0699 17.6C20.0699 15.9432 18.7268 14.6 17.0699 14.6C15.4131 14.6 14.0699 15.9432 14.0699 17.6C14.0699 19.2569 15.4131 20.6 17.0699 20.6Z" fill="#E7EAF2"/>
</g>
<defs>
<clipPath id="clip0_301_18">
<rect width="24" height="24" fill="white" transform="translate(0.469971)"/>
</clipPath>
</defs>
</svg>
