<svg width="25" height="24" viewBox="0 0 25 24" fill="none" xmlns="http://www.w3.org/2000/svg">
<g id="numbers_FILL1_wght400_GRAD0_opsz24 1">
<path id="Vector" d="M9.47 16L8.645 19.275C8.595 19.4917 8.48667 19.6667 8.32 19.8C8.15333 19.9333 7.95333 20 7.72 20C7.40333 20 7.145 19.875 6.945 19.625C6.745 19.375 6.68667 19.1 6.77 18.8L7.47 16H4.745C4.41167 16 4.145 15.8708 3.945 15.6125C3.745 15.3542 3.68667 15.0667 3.77 14.75C3.82 14.5167 3.93667 14.3333 4.12 14.2C4.30333 14.0667 4.51167 14 4.745 14H7.97L8.97 10H6.245C5.91167 10 5.645 9.87083 5.445 9.6125C5.245 9.35417 5.18667 9.06667 5.27 8.75C5.32 8.51667 5.43667 8.33333 5.62 8.2C5.80333 8.06667 6.01167 8 6.245 8H9.47L10.295 4.725C10.345 4.50833 10.4533 4.33333 10.62 4.2C10.7867 4.06667 10.9867 4 11.22 4C11.5367 4 11.795 4.125 11.995 4.375C12.195 4.625 12.2533 4.9 12.17 5.2L11.47 8H15.47L16.295 4.725C16.345 4.50833 16.4533 4.33333 16.62 4.2C16.7867 4.06667 16.9867 4 17.22 4C17.5367 4 17.795 4.125 17.995 4.375C18.195 4.625 18.2533 4.9 18.17 5.2L17.47 8H20.195C20.5283 8 20.795 8.12917 20.995 8.3875C21.195 8.64583 21.2533 8.93333 21.17 9.25C21.12 9.48333 21.0033 9.66667 20.82 9.8C20.6367 9.93333 20.4283 10 20.195 10H16.97L15.97 14H18.695C19.0283 14 19.295 14.1292 19.495 14.3875C19.695 14.6458 19.7533 14.9333 19.67 15.25C19.62 15.4833 19.5033 15.6667 19.32 15.8C19.1367 15.9333 18.9283 16 18.695 16H15.47L14.645 19.275C14.595 19.4917 14.4867 19.6667 14.32 19.8C14.1533 19.9333 13.9533 20 13.72 20C13.4033 20 13.145 19.875 12.945 19.625C12.745 19.375 12.6867 19.1 12.77 18.8L13.47 16H9.47ZM9.97 14H13.97L14.97 10H10.97L9.97 14Z" fill="#E7EAF2"/>
</g>
</svg>
