<svg
  xmlns="http://www.w3.org/2000/svg"
  height="24"
  viewBox="0 -960 960 960"
  width="24"
  fill="#FAFAFA"
>
  <path
    d="M161-600q-17 0-28.5-11.5T121-640q0-17 11.5-28.5T161-680h64l-96-96q-11-11-11-28t11-28q11-11 28-11t28 11l96 96v-64q0-17 11.5-28.5T321-840q17 0 28.5 11.5T361-800v160q0 17-11.5 28.5T321-600H161Zm640 0H641q-17 0-28.5-11.5T601-640v-160q0-17 11.5-28.5T641-840q17 0 28.5 11.5T681-800v64l96-96q11-11 28-11t28 11q11 11 11 28t-11 28l-96 96h64q17 0 28.5 11.5T841-640q0 17-11.5 28.5T801-600ZM129-128q-11-11-11-28t11-28l96-96h-64q-17 0-28.5-11.5T121-320q0-17 11.5-28.5T161-360h160q17 0 28.5 11.5T361-320v160q0 17-11.5 28.5T321-120q-17 0-28.5-11.5T281-160v-64l-96 96q-11 11-28 11t-28-11Zm512 8q-17 0-28.5-11.5T601-160v-160q0-17 11.5-28.5T641-360h160q17 0 28.5 11.5T841-320q0 17-11.5 28.5T801-280h-64l96 96q11 11 11 28t-11 28q-11 11-28 11t-28-11l-96-96v64q0 17-11.5 28.5T641-120Z"
  />
</svg>
